<svg xmlns:dc="http://purl.org/dc/elements/1.1/" xmlns:cc="http://creativecommons.org/ns#" xmlns:rdf="http://www.w3.org/1999/02/22-rdf-syntax-ns#" xmlns:svg="http://www.w3.org/2000/svg" xmlns="http://www.w3.org/2000/svg" xmlns:xlink="http://www.w3.org/1999/xlink" id="svg418452" viewBox="0 0 1024 768" height="768px" width="1024px" version="1.1">
  <metadata id="metadata418458">
    <rdf:rdf>
      <cc:work rdf:about="">
        <dc:format>image/svg+xml</dc:format>
        <dc:type rdf:resource="http://purl.org/dc/dcmitype/StillImage"></dc:type>
      </cc:work>
    </rdf:rdf>
  </metadata>
  <defs id="defs418456"></defs>
  <linearGradient spreadMethod="pad" y2="30%" x2="-10%" y1="120%" x1="30%" id="3d_gradient2-logo-7e633046-4fb9-4f45-8cdb-fb99c9bafc7f">
    <stop id="stop418433" stop-opacity="1" stop-color="#ffffff" offset="0%"></stop>
    <stop id="stop418435" stop-opacity="1" stop-color="#000000" offset="100%"></stop>
  </linearGradient>
  <linearGradient gradientTransform="rotate(-30)" spreadMethod="pad" y2="30%" x2="-10%" y1="120%" x1="30%" id="3d_gradient3-logo-7e633046-4fb9-4f45-8cdb-fb99c9bafc7f">
    <stop id="stop418438" stop-opacity="1" stop-color="#ffffff" offset="0%"></stop>
    <stop id="stop418440" stop-opacity="1" stop-color="#cccccc" offset="50%"></stop>
    <stop id="stop418442" stop-opacity="1" stop-color="#000000" offset="100%"></stop>
  </linearGradient>
  <g id="logo-group">
    <image xlink:href="" id="container" x="272" y="144" width="480" height="480" style="display: none;" transform="translate(0 0)"></image>
    <g id="logo-center" transform="translate(231.46148437499994 0)">
      <image xlink:href="" id="icon_container" style="display: none;" x="0" y="0"></image>
      <g id="slogan" style="font-style:normal;font-weight:normal;font-size:32px;line-height:1;font-family:'Brandmark Sans 30 Color';font-variant-ligatures:none;text-align:center;text-anchor:middle" transform="translate(0 0)"></g>
      <g id="title" style="font-style:normal;font-weight:normal;font-size:72px;line-height:1;font-family:'Brandmark Sans 30 Color';font-variant-ligatures:normal;text-align:center;text-anchor:middle" transform="translate(0 0)">
        <g id="path418461" aria-label="^H" transform="translate(0 319.303) translate(50 32.72) scale(1.375) translate(-344.34181 46.08)"> <path class="c3" d="M81.38857,122.31979V76.23581h5.40051V96.5416h26.42627V76.23581h5.40039v46.08398h-5.40039v-20.37781 H86.78908v20.37781H81.38857z" transform="translate(262.95324 -122.31581)" stroke-width="0" stroke-linejoin="miter" stroke-miterlimit="2" fill="#626262" stroke="#626262"></path> </g>
        <g id="path418463" aria-label="^u" transform="translate(0 319.303) translate(105.4941475 44.6) scale(1.375) translate(-384.70119 37.44)"> <path class="c3" d="M110.26271,122.31984v-3.24023c-2.23193,2.44812-5.54443,3.60022-10.22461,3.60022 c-11.37695,0-15.69727-5.83252-15.69727-16.92151V84.8766h5.40039v22.53796c0,6.69653,3.09619,9.86475,7.63281,9.86475h5.83252 c4.53613,0,7.05615-3.16821,7.05615-8.28064V84.8766h5.40088v37.44324H110.26271z" transform="translate(300.36036 -122.3166)" stroke-width="0" stroke-linejoin="miter" stroke-miterlimit="2" fill="#626262" stroke="#626262"></path> </g>
        <g id="path418465" aria-label="^m" transform="translate(0 319.303) translate(152.86718750000003 44.105000000000004) scale(1.375) translate(-419.15431 37.8)"> <path class="c3" d="M80.74123,84.8766v2.3761c1.87207-1.87207,4.68042-2.73608,8.78467-2.73608 c6.62451,0,10.00879,1.94409,11.66504,5.32837c1.94409-3.67236,5.40039-5.32837,11.01709-5.32837 c11.37695,0,12.45703,5.8324,12.45703,16.92139v20.88184h-5.40063V99.78188c0-6.69666-1.65601-9.86487-6.19238-9.86487h-3.31226 c-4.53662,0-7.05664,3.16821-7.05664,8.28076v1.08008v23.04199h-5.40039V99.78188c0-6.69666-1.65625-9.86487-6.19263-9.86487 h-3.31226c-4.53638,0-7.05664,3.16821-7.05664,8.28076v24.12207h-5.40039V84.8766H80.74123z" transform="translate(343.81347 -122.31662)" stroke-width="0" stroke-linejoin="miter" stroke-miterlimit="2" fill="#626262" stroke="#626262"></path> </g>
        <g id="path418467" aria-label="^a" transform="translate(0 319.303) translate(224.99024125000003 44.105000000000004) scale(1.375) translate(-471.60744 37.8)"> <path class="c3" d="M82.86455,103.45412c0-11.88098,7.1286-18.9375,17.64154-18.9375c4.75238,0,8.4967,1.72803,11.23297,4.6084 V84.8766h5.40045v37.44324h-5.40045v-4.24841c-2.73627,2.95227-6.48059,4.68042-11.23297,4.68042 C89.99315,122.75185,82.86455,115.62331,82.86455,103.45412z M98.05785,116.99135h4.68042 c5.83252,0,9.00079-4.10437,9.00079-10.58484v-5.90454c0-6.48059-3.16827-10.58496-9.00079-10.58496h-4.68042 c-5.83249,0-9.79285,5.04041-9.79285,13.53711C88.265,111.95094,92.22536,116.99135,98.05785,116.99135z" transform="translate(388.74289 -122.31662)" stroke-width="0" stroke-linejoin="miter" stroke-miterlimit="2" fill="#626262" stroke="#626262"></path> </g>
        <g id="path418469" aria-label="^n" transform="translate(0 319.303) translate(276.42383500000005 44.105000000000004) scale(1.375) translate(-509.01369 37.8)"> <path class="c3" d="M89.74123,84.8766v3.24023c2.23218-2.44812,5.54443-3.60022,10.22485-3.60022 c11.37695,0,15.69727,5.8324,15.69727,16.92139v20.88184h-5.40039V99.78188c0-6.69666-2.37622-9.86487-6.9126-9.86487h-6.55249 c-4.53638,0-7.05664,3.16821-7.05664,8.28076v24.12207h-5.40039V84.8766H89.74123z" transform="translate(424.67285 -122.31661)" stroke-width="0" stroke-linejoin="miter" stroke-miterlimit="2" fill="#626262" stroke="#626262"></path> </g>
        <g id="path418471" aria-label="^i" transform="translate(0 319.303) translate(323.796875 32.72) scale(1.375) translate(-543.46681 46.08)"> <rect x="97.30055" y="76.23586" class="c1" width="5.40063" height="5.40039" transform="translate(446.166258 -122.315863)" stroke-width="0" stroke-linejoin="miter" stroke-miterlimit="2" fill="#1b1b1b" stroke="#1b1b1b"></rect> <rect x="97.30055" y="84.8766" class="c3" width="5.40063" height="37.44324" transform="translate(446.166258 -122.315863)" stroke-width="0" stroke-linejoin="miter" stroke-miterlimit="2" fill="#626262" stroke="#626262"></rect> </g>
        <g id="path418473" aria-label="^z" transform="translate(0 319.303) translate(335.59180375000005 44.6) scale(1.375) translate(-552.04494 37.44)"> <path class="c3" d="M113.14308,90.27711l-20.37744,26.64221h21.09766v5.40051H86.14064v-5.40051h0.14404l20.37793-26.64221 H86.14064V84.8766h27.00244V90.27711z" transform="translate(465.9043 -122.3166)" stroke-width="0" stroke-linejoin="miter" stroke-miterlimit="2" fill="#626262" stroke="#626262"></path> </g>
        <g id="path418475" aria-label="^e" transform="translate(0 319.303) translate(378.13086625000005 44.105000000000004) scale(1.375) translate(-582.98244 37.8)"> <path class="c3" d="M83.15236,103.52614c0-12.45703,6.48059-19.00952,16.84949-19.00952s16.84949,6.55249,16.84949,19.00952 v1.44019H88.69679c0.28809,9.07275,3.38428,12.16907,9.36084,12.16907h4.53638c3.74438,0,6.55261-2.37622,8.28076-7.05664h5.40039 c-2.01611,7.99268-7.92065,12.60107-16.27332,12.60107C89.20094,122.67982,83.15236,115.47926,83.15236,103.52614z M111.16286,99.9258c-0.72021-7.4165-3.74438-10.00879-9.2168-10.00879h-3.88843c-5.47241,0-8.4967,2.59229-9.2168,10.00879 H111.16286z" transform="translate(499.83008 -122.31662)" stroke-width="0" stroke-linejoin="miter" stroke-miterlimit="2" fill="#626262" stroke="#626262"></path> </g>
        <g id="path418477" aria-label="A" transform="translate(0 319.303) translate(428.7910225 32.72) scale(1.375) translate(-619.82619 46.08)"> <path class="c1" d="M107.85103,76.23584l15.84137,46.08398h-9.93686L101.01042,85.2366h-2.01617l-12.74509,37.08322H76.3123 l15.84137-46.08398H107.85103z" transform="translate(543.51389 -122.31584)" stroke-width="0" stroke-linejoin="miter" stroke-miterlimit="2" fill="#1b1b1b" stroke="#1b1b1b"></path> </g>
        <g id="path418479" aria-label="I" transform="translate(0 319.303) translate(498.20703125000006 32.72) scale(1.375) translate(-670.31056 46.08)"> <rect x="95.32033" y="76.23584" class="c3" width="9.36084" height="9.36081" transform="translate(574.990232 -122.31584)" stroke-width="0" stroke-linejoin="miter" stroke-miterlimit="2" fill="#626262" stroke="#626262"></rect> <polygon class="c1" points="104.60915,122.31982 95.32033,122.31982 95.32033,88.4769 104.68117,88.4769 " transform="translate(574.990232 -122.31584)" stroke-width="0" stroke-linejoin="miter" stroke-miterlimit="2" fill="#1b1b1b" stroke="#1b1b1b"></polygon> </g>
                </g>
      <image xlink:href="" id="icon" style="display: none;" x="0" y="0"></image>
    </g>
  </g>
</svg>