<svg width="500" height="308" viewBox="0 0 500 308" fill="none" xmlns="http://www.w3.org/2000/svg">
<path d="M473.039 261.335H26.9606C12.0674 261.335 0 271.786 0 284.668C0 297.549 12.0674 308 26.9606 308L473.039 308C487.933 308 500 297.549 500 284.668C500 271.786 487.933 261.335 473.039 261.335ZM375.816 174.218L124.184 174.218C109.291 174.218 97.2232 184.669 97.2232 197.551C97.2232 210.432 109.291 220.883 124.184 220.883L375.816 220.883C390.709 220.883 402.777 210.432 402.777 197.551C402.777 184.669 390.709 174.218 375.816 174.218ZM473.039 87.1169L26.9606 87.1169C12.0674 87.1169 0 97.5679 0 110.449C0 123.331 12.0674 133.782 26.9606 133.782L473.039 133.782C487.933 133.782 500 123.331 500 110.449C500 97.5679 487.933 87.1169 473.039 87.1169ZM375.816 0H124.184C109.291 0 97.2232 10.451 97.2232 23.3324C97.2232 36.2138 109.291 46.6648 124.184 46.6648H375.816C390.709 46.6648 402.777 36.2138 402.777 23.3324C402.777 10.451 390.709 0 375.816 0Z" fill="#161A27"/>
</svg>
