<svg width="13" height="13" viewBox="0 0 13 13" fill="none" xmlns="http://www.w3.org/2000/svg">
<path d="M1.0805 11.2124C0.885236 11.4076 0.885236 11.7242 1.0805 11.9195C1.27576 12.1147 1.59234 12.1147 1.7876 11.9195L1.0805 11.2124ZM12.066 1.43398C12.066 1.15783 11.8421 0.933976 11.566 0.933976L7.06599 0.933976C6.78985 0.933976 6.56599 1.15783 6.56599 1.43398C6.56599 1.71012 6.78985 1.93398 7.06599 1.93398L11.066 1.93398L11.066 5.93398C11.066 6.21012 11.2899 6.43398 11.566 6.43398C11.8421 6.43398 12.066 6.21012 12.066 5.93398L12.066 1.43398ZM1.7876 11.9195L11.9195 1.78753L11.2124 1.08042L1.0805 11.2124L1.7876 11.9195Z" fill="white"/>
</svg>
