<svg width="601" height="414" viewBox="0 0 601 414" fill="none" xmlns="http://www.w3.org/2000/svg">
<g opacity="0.1">
<path d="M-58.2822 96.8337L-56.0784 54.4266L-40.3102 14.2138L-23.8062 -23.4795L-5.63122 -59.0499L18.7377 -89.1801L48.2562 -111.6L62.8218 -111.423L78.909 -114.286L100.914 -133.432L104.01 -136.135L122.946 -171.385L143.782 -213.135L170.507 -248.263L201.804 -261.201" stroke="url(#paint0_linear_785_4376)" stroke-width="1.08501" stroke-linecap="round" stroke-linejoin="round"/>
<path d="M261.423 355.961L224.49 337.017L190.447 311.569L160.717 289.958L132.49 277.713L102.947 273.541L73.095 271.295" stroke="url(#paint1_linear_785_4376)" stroke-width="1.08501" stroke-linecap="round" stroke-linejoin="round"/>
<path d="M322.323 -10.463L360.248 -15.3015L410.576 -24.8237L468.764 -36.069L517.407 -43.2219L552.44 -46.9704L567.948 -46.825" stroke="url(#paint2_linear_785_4376)" stroke-width="1.08501" stroke-linecap="round" stroke-linejoin="round"/>
<path d="M444.381 135.918L443.946 136.747L426.912 169.578L414.575 204.801L408.054 212.252L398.654 243.253L395.833 252.528L385.287 265.094L365.689 275.258L335.57 280.118L295.909 276.765L250.86 263.215L207.526 238.622L173.253 209.716L179.312 172.006L185.279 135.252L191.293 98.7321L197.597 61.8272L204.285 27.99L210.236 -0.887116L215.935 -31.4558L221.985 -64.6029L227.794 -94.0768L233.452 -121.737L239.745 -153.246L246.808 -188.478L232.869 -208.333L217.197 -225.028L200.827 -237.399L184.914 -245.093L170.509 -248.263L158.208 -248.49L130.321 -214.704L129.099 -213.228L128.706 -212.444L107.294 -170.775L88.0959 -134.597L85.3436 -132.078L62.823 -111.423L59.6865 -108.275L37.2936 -85.9146L21.5777 -50.5177L7.05362 -14.78L-12.747 20.6541L-33.6724 60.1668L-40.5427 103.484L-35.0057 145.171L-22.9016 183.13L-3.75017 192.605L9.57223 227.368L32.1969 237.137L65.7424 239.401L103.486 236.042L137.27 236.49L166.725 250.401L198.926 277.81L238.401 306.227L280.512 322.473L318.936 327.386L349.384 322.635L370.015 310.875L385.287 265.094L396.735 220.366L408.054 212.252L419.049 173.678L420.699 169.983L435.305 137.453L444.381 135.918ZM444.381 135.918L446.525 133.713L477.999 101.593L478.377 101.206L491.563 101.948L532.891 58.5852L556.411 5.90567L552.44 -46.9708L530.946 -94.3474L492.394 -129.445L437.341 -143.563L415.635 -135.196L387.789 -122.853L354.863 -105.315L324.1 -88.7634L304.463 -97.7306L288.184 -92.5056L275.721 -96.179L265.241 -109.305L253.961 -129.699L258.429 -167.539L261.517 -201.952L260.372 -216.811L255.929 -223.464L251.171 -229.599L243.37 -230.365L232.948 -242.301L222.18 -251.675L211.611 -258.029L184.914 -245.093L161.174 -211.091L141.712 -171.104L123.57 -137.264L100.33 -115.637L82.3605 -82.3057L75.6696 -38.7153L67.5248 -0.577777L49.5636 33.9357L27.9148 73.6208L16.6974 118.318L16.4627 161.805L22.5282 201.5L32.1969 237.137L47.3937 265.241L73.0947 271.296L87.0844 291.159L108.77 299.502L120.149 310.194L137.828 319.958L157.2 329.054L159.237 329.937L159.465 330.028L159.771 330.166L160.274 330.373L161.002 330.687L161.937 331.106L163.09 333.523L169.395 334.313L170.476 334.791L171.772 335.341L173.418 336.071L175.7 337.047L177.641 337.88L179.004 338.44L184.453 340.7L193.52 344.44L198.694 346.584L198.955 346.68L199.115 346.759L209.491 351.589L222.235 357.497L239.871 365.674L268.495 374.862L293.854 375.965L314.213 370.424L322.475 365.403L331.297 360.042L347.045 350.475L360.548 335.616L363.978 328.995L374.723 308.185L381.411 295.242L386.855 280.216L392.014 268.715L402.772 250.597L416.215 230.973L417.265 229.588L419.314 227.02L439.406 201.649L439.804 201.144L459.998 170.046L480.08 137.663L480.535 136.924L505.612 102.714L506.041 102.127L506.832 101.046L520.12 82.6447L524.191 78.0759L540.892 59.2985L540.999 59.1777L557.841 24.7176L566.372 7.24615L567.948 -46.8254L549.631 -96.5616L533.612 -112.032L510.927 -133.941L492.394 -129.445L463.698 -121.1L425.474 -107.531L380.317 -87.9686L340.167 -70.5086L309.259 -59.8653L286.033 -57.2748L266.301 -60.9649L248.324 -74.094L227.794 -94.0768L202.516 -113.996L174.499 -128.202L147.364 -135.315L123.57 -137.264L104.011 -136.135L88.0959 -134.597L73.7189 -135.887L48.2574 -111.599L33.3232 -115.952L18.1674 -123.709L4.50711 -133.121L-4.36912 -141.168L-4.07509 -143.826L32.5467 -160.026L63.8492 -184.678L78.2976 -196.409L96.1249 -214.562L99.9749 -215.159L107.093 -214.353L116.891 -213.491L129.099 -213.228L143.783 -213.135L161.174 -211.091L180.918 -204.708L201.785 -192.964L222.015 -175.41L239.745 -153.246L253.961 -129.699L250.602 -99.1156L264.586 -81.3701L279.233 -73.5779L286.033 -57.2748L287.664 -31.9722L293.659 -10.9118L311.965 6.42107L348.737 8.69407L390.071 9.24093L415.769 46.8642L417.833 94.1942L401.544 138.813L387.716 181.611L377.405 227.209L365.689 275.258L349.384 322.635L325.537 360.542L296.308 363.018L261.422 355.962L239.871 365.674L215.176 352.761L210.447 350.658L207.409 348.408L205.994 347.543L195.333 341.016L182.992 333.441L157.101 318.78L132.423 307.918L108.77 299.502L102.947 273.541L103.486 236.042L107.388 195.901L111.115 158.439L116.596 121.169L124.652 84.7863L133.674 50.9972L141.384 18.7043L145.484 -18.6088L149.947 -63.1839L160.536 -101.306L174.499 -128.202L187.807 -158.505L201.785 -192.964L217.197 -225.028L232.948 -242.301" stroke="url(#paint3_linear_785_4376)" stroke-width="1.08501" stroke-linecap="round" stroke-linejoin="round"/>
<path d="M438.397 168.781L423.571 201.899L407.302 234.721L401.029 240.912L397.591 250.448L391.566 267.164L390.875 270.014L386.856 280.215L386.779 280.358" stroke="url(#paint4_linear_785_4376)" stroke-width="1.08501" stroke-linecap="round" stroke-linejoin="round"/>
<path d="M196.373 346.658L187.979 343.344L179.928 340.158L176.711 338.658L163.09 333.522" stroke="url(#paint5_linear_785_4376)" stroke-width="1.08501" stroke-linecap="round" stroke-linejoin="round"/>
<path d="M193.89 346.046L187.56 343.464L183.611 341.875L176.547 338.804L163.09 333.522" stroke="url(#paint6_linear_785_4376)" stroke-width="1.08501" stroke-linecap="round" stroke-linejoin="round"/>
<path d="M173.253 209.716L143.587 195.11L107.389 195.902L62.9962 201.935L22.5285 201.5L-3.74987 192.605L-12.6496 153.454L-14.6615 110.628L-4.2084 66.6511L19.0984 27.6287L39.1454 -6.39203L49.3318 -43.16L58.1359 -83.8582L76.8348 -111.253L78.9105 -114.285L100.33 -115.637L128.279 -111.683L160.536 -101.306L193.208 -84.768L221.985 -64.6027L245.479 -47.467L267.084 -38.1316L287.665 -31.972L312.238 -32.3733L346.634 -40.8638L393.679 -56.3053L448.824 -74.3835L496.041 -86.9493L530.946 -94.3472L549.631 -96.5614" stroke="url(#paint7_linear_785_4376)" stroke-width="1.08501" stroke-linecap="round" stroke-linejoin="round"/>
<path d="M215.176 352.76L210.695 350.422L199.219 346.759L198.975 346.666" stroke="url(#paint8_linear_785_4376)" stroke-width="1.08501" stroke-linecap="round" stroke-linejoin="round"/>
<path d="M73.095 271.295L65.7427 239.401L62.9962 201.935L61.8624 163.145L64.9913 121.936L75.1629 80.1328L90.7642 42.3386L103.256 8.14838L108.62 -30.6856L113.738 -75.9485L128.279 -111.683L147.364 -135.315L163.698 -167.397L180.919 -204.708L200.827 -237.399L222.18 -251.675" stroke="url(#paint9_linear_785_4376)" stroke-width="1.08501" stroke-linecap="round" stroke-linejoin="round"/>
<path d="M193.521 344.439L189.398 342.96L176.711 338.658L163.09 333.522" stroke="url(#paint10_linear_785_4376)" stroke-width="1.08501" stroke-linecap="round" stroke-linejoin="round"/>
<path d="M417.264 229.587L416.214 230.971L410.406 237.693" stroke="url(#paint11_linear_785_4376)" stroke-width="1.08501" stroke-linecap="round" stroke-linejoin="round"/>
<path d="M324.1 -88.7646L340.167 -70.5098L346.633 -40.8653L360.248 -15.3031L390.071 9.23967L438.195 7.91674L489.342 5.85692L529.162 5.50495L556.411 5.90441L566.371 7.24489" stroke="url(#paint12_linear_785_4376)" stroke-width="1.08501" stroke-linecap="round" stroke-linejoin="round"/>
<path d="M304.462 -97.7314L324.448 -109.062L345.812 -122.173L387.788 -122.854L425.473 -107.531L448.823 -74.3845L468.763 -36.0702L489.341 5.85739L489.805 54.3394L464.857 100.077" stroke="url(#paint13_linear_785_4376)" stroke-width="1.08501" stroke-linecap="round" stroke-linejoin="round"/>
<path d="M264.41 -209.914L268.862 -187.535L267.91 -148.11L265.241 -109.305L264.586 -81.3705L266.301 -60.9653L267.084 -38.1322L268.787 -15.7159L276.897 3.30804L286.914 31.6627L289.397 75.193L281.808 123.369L271.795 169.764L261.804 216.544L250.86 263.214L238.401 306.226L224.49 337.017L210.695 350.421" stroke="url(#paint14_linear_785_4376)" stroke-width="1.08501" stroke-linecap="round" stroke-linejoin="round"/>
<path d="M184.453 340.699L183.107 340.245L176.751 338.63L163.09 333.522" stroke="url(#paint15_linear_785_4376)" stroke-width="1.08501" stroke-linecap="round" stroke-linejoin="round"/>
<path d="M464.856 100.078L444.378 97.7196L417.832 94.1941L383.641 89.2865L340.07 82.7897L289.396 75.1933L238.904 67.7499L197.596 61.8271L166.802 57.1481L133.672 50.9971L90.7625 42.3387L49.5622 33.9356L19.0967 27.6284L-12.7484 20.654L-40.3104 14.2141L-60.3173 9.07162L-69.4629 5.99512" stroke="url(#paint16_linear_785_4376)" stroke-width="1.08501" stroke-linecap="round" stroke-linejoin="round"/>
<path d="M120.148 310.193L104.772 299.639L87.0836 291.158L68.8981 281.309L47.393 265.239L29.4671 254.062L24.3909 247.25L9.57145 227.366L-5.94137 216.39L-21.0497 186.74L-22.9024 183.128L-35.1115 173.857L-39.7829 161.889L-49.4554 137.134L-55.0018 129.408L-59.2039 114.465L-64.8408 94.3676L-65.8525 90.812" stroke="url(#paint17_linear_785_4376)" stroke-width="1.08501" stroke-linecap="round" stroke-linejoin="round"/>
<path d="M29.4674 254.063L18.3509 241.108L12.5943 235.238L1.35857 223.807L-5.94115 216.391L-14.3978 205.049L-17.2864 200.689L-31.9173 178.669L-35.1113 173.858" stroke="url(#paint18_linear_785_4376)" stroke-width="1.08501" stroke-linecap="round" stroke-linejoin="round"/>
<path d="M243.368 -230.365L252.994 -216.603L246.806 -188.478L258.427 -167.54L267.908 -148.11L276.061 -132.619L284.094 -122.667L292.922 -118.534L302.828 -119.129L324.448 -109.062L354.861 -105.315L380.315 -87.969L393.677 -56.3059L410.575 -24.8245L438.193 7.91763L454.23 51.0373L444.378 97.7193L421.631 138.555L406.841 178.013L396.733 220.366L377.403 227.208L347.964 230.516M347.964 230.516L308.231 227.585L261.803 216.544L215.916 196.673L179.311 172.005L149.081 158.363L111.113 158.438L61.8605 163.145L16.4612 161.805L-12.6515 153.454L-35.0073 145.171L-49.4562 137.135L-58.2826 96.8336L-65.8533 90.8131L-68.1432 55.1596L-68.5001 49.7884L-60.3175 9.07131L-50.4223 -31.4077L-30.2962 -67.6365L1.23407 -94.3497L18.7373 -89.1801L37.292 -85.915L58.1341 -83.8588L82.3589 -82.3061L113.736 -75.9487L149.945 -63.1843L185.359 -46.4417L215.934 -31.4562L243.117 -22.2688L268.786 -15.7158L293.657 -10.9122L322.321 -10.4637L348.735 8.69368L375.784 41.8253L383.641 89.2862L372.074 137.17L358.978 182.816L347.964 230.516ZM347.964 230.516L335.569 280.117L318.935 327.386L296.307 363.017L268.493 374.862" stroke="url(#paint19_linear_785_4376)" stroke-width="1.08501" stroke-linecap="round" stroke-linejoin="round"/>
<path d="M137.827 319.958L132.421 307.917L132.488 277.713L137.268 236.489L143.585 195.109L149.082 158.363L154.85 123.293L160.842 89.668L166.803 57.1478L173.694 25.8963L179.617 -7.11634L185.36 -46.4417L193.207 -84.7687L202.515 -113.997L211.971 -142.974L222.013 -175.41L232.867 -208.333L243.368 -230.365" stroke="url(#paint20_linear_785_4376)" stroke-width="1.08501" stroke-linecap="round" stroke-linejoin="round"/>
<path d="M175.699 337.047L163.089 333.522L159.236 329.936" stroke="url(#paint21_linear_785_4376)" stroke-width="1.08501" stroke-linecap="round" stroke-linejoin="round"/>
<path d="M173.418 336.071L163.09 333.522L159.465 330.027" stroke="url(#paint22_linear_785_4376)" stroke-width="1.08501" stroke-linecap="round" stroke-linejoin="round"/>
<path d="M157.199 329.053L157.1 318.779L160.716 289.958L166.723 250.4L173.252 209.715" stroke="url(#paint23_linear_785_4376)" stroke-width="1.08501" stroke-linecap="round" stroke-linejoin="round"/>
<path d="M171.771 335.341L163.089 333.523L159.771 330.166" stroke="url(#paint24_linear_785_4376)" stroke-width="1.08501" stroke-linecap="round" stroke-linejoin="round"/>
<path d="M480.534 136.924L471.777 137.089L451.654 169.917L433.627 201.747L423.57 201.9L414.574 204.801L413.149 208.604L401.028 240.913L395.832 252.528L388.196 275.167L385.55 282.997L385.38 283.489L381.408 295.26L370.015 310.876L347.044 350.475L325.537 360.542L313.354 366.479L293.854 375.966" stroke="url(#paint25_linear_785_4376)" stroke-width="1.08501" stroke-linecap="round" stroke-linejoin="round"/>
<path d="M459.998 170.046L451.654 169.917L438.397 168.782" stroke="url(#paint26_linear_785_4376)" stroke-width="1.08501" stroke-linecap="round" stroke-linejoin="round"/>
<path d="M170.477 334.79L163.09 333.522L160.274 330.372" stroke="url(#paint27_linear_785_4376)" stroke-width="1.08501" stroke-linecap="round" stroke-linejoin="round"/>
<path d="M439.803 201.143L433.627 201.746L413.806 231.969L407.301 234.72L395.031 261.659L394.864 262.03L390.874 270.014L386.854 280.215" stroke="url(#paint28_linear_785_4376)" stroke-width="1.08501" stroke-linecap="round" stroke-linejoin="round"/>
<path d="M-69.6787 -85.1221L-65.2477 -82.0808L-51.1796 -75.7925L-30.2947 -67.6374L-5.6301 -59.0508L21.5776 -50.519L49.3314 -43.1615L75.6695 -38.7166L108.62 -30.6867L145.484 -18.6101L179.618 -7.11716L210.236 -0.888378L242.543 0.593409L276.897 3.3072L311.965 6.41981L332.704 36.4342L340.071 82.7885L331.257 132.249L319.333 179.379L308.233 227.585L295.909 276.764L280.512 322.471L261.422 355.96" stroke="url(#paint29_linear_785_4376)" stroke-width="1.08501" stroke-linecap="round" stroke-linejoin="round"/>
<path d="M-72.9145 -38.7762L-68.3451 -37.0648L-50.4213 -31.4074L-23.8055 -23.4793L7.05309 -14.7801L39.1446 -6.39239L67.5243 -0.577931L103.255 8.14839L141.383 18.7041L173.695 25.8965L204.284 27.9898L242.239 28.7103L286.914 31.663L332.704 36.4354L375.785 41.8256L415.768 46.864L454.232 51.0375L489.805 54.34L515.009 56.9784L532.89 58.5851L540.999 59.1775" stroke="url(#paint30_linear_785_4376)" stroke-width="1.08501" stroke-linecap="round" stroke-linejoin="round"/>
<path d="M167.453 333.48L163.09 333.522" stroke="url(#paint31_linear_785_4376)" stroke-width="1.08501" stroke-linecap="round" stroke-linejoin="round"/>
<path d="M417.264 229.587L413.806 231.969L409.515 238.756L395.57 260.83" stroke="url(#paint32_linear_785_4376)" stroke-width="1.08501" stroke-linecap="round" stroke-linejoin="round"/>
<path d="M506.831 101.046L502.856 102.073L502.43 102.539L500.563 104.652L471.777 137.088L457.182 136.056L444.38 135.918" stroke="url(#paint33_linear_785_4376)" stroke-width="1.08501" stroke-linecap="round" stroke-linejoin="round"/>
<path d="M190.838 345.009L187.3 343.559L186.783 343.332L176.347 338.961L163.09 333.522" stroke="url(#paint34_linear_785_4376)" stroke-width="1.08501" stroke-linecap="round" stroke-linejoin="round"/>
<path d="M166.449 333.051L163.089 333.523" stroke="url(#paint35_linear_785_4376)" stroke-width="1.08501" stroke-linecap="round" stroke-linejoin="round"/>
<path d="M165.368 332.573L163.089 333.523" stroke="url(#paint36_linear_785_4376)" stroke-width="1.08501" stroke-linecap="round" stroke-linejoin="round"/>
<path d="M63.8486 -184.678L65.7334 -183.613L72.1876 -179.812L81.9031 -175.285L93.7427 -171.925L107.293 -170.775L122.947 -171.385L141.712 -171.105L163.697 -167.397L187.807 -158.505L211.972 -142.974L233.452 -121.737L250.602 -99.1159L248.323 -74.0942L245.478 -47.4675L243.118 -22.2687L242.542 0.594404L242.239 28.7102L238.905 67.7497L231.803 111.305L223.939 153.933L215.917 196.673L207.526 238.622L198.925 277.81L190.446 311.57L182.992 333.441L177.641 337.88" stroke="url(#paint37_linear_785_4376)" stroke-width="1.08501" stroke-linecap="round" stroke-linejoin="round"/>
<path d="M163.088 333.521L163.037 331.569" stroke="url(#paint38_linear_785_4376)" stroke-width="1.08501" stroke-linecap="round" stroke-linejoin="round"/>
<path d="M164.219 332.083L163.09 333.523" stroke="url(#paint39_linear_785_4376)" stroke-width="1.08501" stroke-linecap="round" stroke-linejoin="round"/>
<path d="M199.079 346.769L198.237 346.818L196.373 346.658L193.89 346.046L190.838 345.009L187.303 343.542L187.284 343.556L176.911 338.501L163.09 333.522" stroke="url(#paint40_linear_785_4376)" stroke-width="1.08501" stroke-linecap="round" stroke-linejoin="round"/>
<path d="M198.918 346.69L198.237 346.818L188.548 343.163L176.951 338.473L163.09 333.522" stroke="url(#paint41_linear_785_4376)" stroke-width="1.08501" stroke-linecap="round" stroke-linejoin="round"/>
<path d="M520.119 82.6435L502.856 102.072L491.562 101.946L491.227 102.289L457.182 136.055L438.396 168.78L426.911 169.576L419.049 173.677L406.842 178.013L387.715 181.61L358.979 182.816L319.332 179.379L271.795 169.763L223.939 153.932L185.278 135.251L154.85 123.293L116.595 121.167L64.9904 121.935L16.6967 118.317L-14.6625 110.627L-40.5433 103.482L-58.2817 96.8328" stroke="url(#paint42_linear_785_4376)" stroke-width="1.08501" stroke-linecap="round" stroke-linejoin="round"/>
<path d="M304.169 -135.841L304.916 -135.54L305.223 -135.506L305.321 -135.472L329.397 -127.713L331.326 -127.525L346.862 -129.388L364.322 -132.158L367.057 -132.319L415.635 -135.196L463.698 -121.1L496.041 -86.9498L517.407 -43.2226L529.162 5.50586L515.009 56.9782L478.377 101.206L464.858 100.078L459.356 107.042L435.305 137.452L421.633 138.555L401.544 138.813L372.076 137.17L331.257 132.25L281.808 123.369L231.804 111.305L191.293 98.7318L160.843 89.6681L124.652 84.786L75.1625 80.1326L27.9147 73.6205L-4.20882 66.6506L-33.6725 60.1665L-56.0773 54.4266L-68.4987 49.7884L-69.6603 46.6066L-69.4616 5.99487L-68.7828 -20.5477L-68.3447 -37.065L-51.1796 -75.7915L-17.4342 -102.979L18.1673 -123.709L47.8823 -146.981L72.188 -179.812L97.4738 -211.974L99.9748 -215.16L112.606 -224.769L114.979 -226.588L131.004 -238.816L135.509 -242.253L140.564 -245.353L146.248 -247.15L148.433 -247.647L158.207 -248.49L162.412 -250.052L175.598 -254.95L193.212 -261.494L201.805 -261.201L211.611 -258.03" stroke="url(#paint43_linear_785_4376)" stroke-width="1.08501" stroke-linecap="round" stroke-linejoin="round"/>
<path d="M210.215 350.896L199.168 346.751" stroke="url(#paint44_linear_785_4376)" stroke-width="1.08501" stroke-linecap="round" stroke-linejoin="round"/>
<path d="M169.394 334.313L168.405 333.902L163.089 333.523L161.001 330.687" stroke="url(#paint45_linear_785_4376)" stroke-width="1.08501" stroke-linecap="round" stroke-linejoin="round"/>
<path d="M168.405 333.903L167.452 333.481L166.449 333.051L165.367 332.572L164.218 332.082L163.038 331.57L161.937 331.106" stroke="url(#paint46_linear_785_4376)" stroke-width="1.08501" stroke-linecap="round" stroke-linejoin="round"/>
</g>
<defs>
<linearGradient id="paint0_linear_785_4376" x1="10.6263" y1="-293.591" x2="218.169" y2="-240.197" gradientUnits="userSpaceOnUse">
<stop stop-color="#DD38DD"/>
<stop offset="1" stop-color="#0BA5EC"/>
</linearGradient>
<linearGradient id="paint1_linear_785_4376" x1="81.1581" y1="269.016" x2="220.777" y2="387.706" gradientUnits="userSpaceOnUse">
<stop stop-color="#DD38DD"/>
<stop offset="1" stop-color="#0BA5EC"/>
</linearGradient>
<linearGradient id="paint2_linear_785_4376" x1="343.983" y1="-84.7698" x2="524.346" y2="49.0315" gradientUnits="userSpaceOnUse">
<stop stop-color="#DD38DD"/>
<stop offset="1" stop-color="#0BA5EC"/>
</linearGradient>
<linearGradient id="paint3_linear_785_4376" x1="42.6993" y1="-286.647" x2="629.681" y2="-88.9437" gradientUnits="userSpaceOnUse">
<stop stop-color="#DD38DD"/>
<stop offset="1" stop-color="#0BA5EC"/>
</linearGradient>
<linearGradient id="paint4_linear_785_4376" x1="407.8" y1="163.597" x2="441.409" y2="170.86" gradientUnits="userSpaceOnUse">
<stop stop-color="#DD38DD"/>
<stop offset="1" stop-color="#0BA5EC"/>
</linearGradient>
<linearGradient id="paint5_linear_785_4376" x1="164.397" y1="333.743" x2="184.173" y2="355.493" gradientUnits="userSpaceOnUse">
<stop stop-color="#DD38DD"/>
<stop offset="1" stop-color="#0BA5EC"/>
</linearGradient>
<linearGradient id="paint6_linear_785_4376" x1="164.302" y1="333.727" x2="183.467" y2="353.813" gradientUnits="userSpaceOnUse">
<stop stop-color="#DD38DD"/>
<stop offset="1" stop-color="#0BA5EC"/>
</linearGradient>
<linearGradient id="paint7_linear_785_4376" x1="54.6928" y1="-180.415" x2="556.898" y2="26.1917" gradientUnits="userSpaceOnUse">
<stop stop-color="#DD38DD"/>
<stop offset="1" stop-color="#0BA5EC"/>
</linearGradient>
<linearGradient id="paint8_linear_785_4376" x1="199.609" y1="346.773" x2="208.473" y2="357.353" gradientUnits="userSpaceOnUse">
<stop stop-color="#DD38DD"/>
<stop offset="1" stop-color="#0BA5EC"/>
</linearGradient>
<linearGradient id="paint9_linear_785_4376" x1="134.366" y1="-266.552" x2="231.216" y2="-247.305" gradientUnits="userSpaceOnUse">
<stop stop-color="#DD38DD"/>
<stop offset="1" stop-color="#0BA5EC"/>
</linearGradient>
<linearGradient id="paint10_linear_785_4376" x1="164.278" y1="333.723" x2="179.446" y2="353.468" gradientUnits="userSpaceOnUse">
<stop stop-color="#DD38DD"/>
<stop offset="1" stop-color="#0BA5EC"/>
</linearGradient>
<linearGradient id="paint11_linear_785_4376" x1="412.135" y1="228.718" x2="417.676" y2="230.225" gradientUnits="userSpaceOnUse">
<stop stop-color="#DD38DD"/>
<stop offset="1" stop-color="#0BA5EC"/>
</linearGradient>
<linearGradient id="paint12_linear_785_4376" x1="333.619" y1="-87.1518" x2="531.34" y2="55.7705" gradientUnits="userSpaceOnUse">
<stop stop-color="#DD38DD"/>
<stop offset="1" stop-color="#0BA5EC"/>
</linearGradient>
<linearGradient id="paint13_linear_785_4376" x1="318.698" y1="-134.559" x2="525.761" y2="-62.9707" gradientUnits="userSpaceOnUse">
<stop stop-color="#DD38DD"/>
<stop offset="1" stop-color="#0BA5EC"/>
</linearGradient>
<linearGradient id="paint14_linear_785_4376" x1="267.13" y1="-209.453" x2="343.436" y2="-194.833" gradientUnits="userSpaceOnUse">
<stop stop-color="#DD38DD"/>
<stop offset="1" stop-color="#0BA5EC"/>
</linearGradient>
<linearGradient id="paint15_linear_785_4376" x1="163.921" y1="333.663" x2="173.069" y2="347.244" gradientUnits="userSpaceOnUse">
<stop stop-color="#DD38DD"/>
<stop offset="1" stop-color="#0BA5EC"/>
</linearGradient>
<linearGradient id="paint16_linear_785_4376" x1="-49.2013" y1="9.42788" x2="-52.4513" y2="79.5151" gradientUnits="userSpaceOnUse">
<stop stop-color="#DD38DD"/>
<stop offset="1" stop-color="#0BA5EC"/>
</linearGradient>
<linearGradient id="paint17_linear_785_4376" x1="-57.6351" y1="92.2042" x2="157.813" y2="173.803" gradientUnits="userSpaceOnUse">
<stop stop-color="#DD38DD"/>
<stop offset="1" stop-color="#0BA5EC"/>
</linearGradient>
<linearGradient id="paint18_linear_785_4376" x1="-32.2331" y1="174.346" x2="43.6352" y2="202.261" gradientUnits="userSpaceOnUse">
<stop stop-color="#DD38DD"/>
<stop offset="1" stop-color="#0BA5EC"/>
</linearGradient>
<linearGradient id="paint19_linear_785_4376" x1="5.59749" y1="-270.649" x2="524.052" y2="-104.042" gradientUnits="userSpaceOnUse">
<stop stop-color="#DD38DD"/>
<stop offset="1" stop-color="#0BA5EC"/>
</linearGradient>
<linearGradient id="paint20_linear_785_4376" x1="216.619" y1="-234.897" x2="246.243" y2="-229.624" gradientUnits="userSpaceOnUse">
<stop stop-color="#DD38DD"/>
<stop offset="1" stop-color="#0BA5EC"/>
</linearGradient>
<linearGradient id="paint21_linear_785_4376" x1="159.887" y1="330.046" x2="171.013" y2="340.683" gradientUnits="userSpaceOnUse">
<stop stop-color="#DD38DD"/>
<stop offset="1" stop-color="#0BA5EC"/>
</linearGradient>
<linearGradient id="paint22_linear_785_4376" x1="160.016" y1="330.121" x2="169.479" y2="339.131" gradientUnits="userSpaceOnUse">
<stop stop-color="#DD38DD"/>
<stop offset="1" stop-color="#0BA5EC"/>
</linearGradient>
<linearGradient id="paint23_linear_785_4376" x1="173.405" y1="209.741" x2="177.722" y2="210.497" gradientUnits="userSpaceOnUse">
<stop stop-color="#DD38DD"/>
<stop offset="1" stop-color="#0BA5EC"/>
</linearGradient>
<linearGradient id="paint24_linear_785_4376" x1="160.245" y1="330.246" x2="168.338" y2="338.003" gradientUnits="userSpaceOnUse">
<stop stop-color="#DD38DD"/>
<stop offset="1" stop-color="#0BA5EC"/>
</linearGradient>
<linearGradient id="paint25_linear_785_4376" x1="343.814" y1="113.761" x2="491.97" y2="152.701" gradientUnits="userSpaceOnUse">
<stop stop-color="#DD38DD"/>
<stop offset="1" stop-color="#0BA5EC"/>
</linearGradient>
<linearGradient id="paint26_linear_785_4376" x1="439.594" y1="166.589" x2="444.739" y2="178.183" gradientUnits="userSpaceOnUse">
<stop stop-color="#DD38DD"/>
<stop offset="1" stop-color="#0BA5EC"/>
</linearGradient>
<linearGradient id="paint27_linear_785_4376" x1="160.678" y1="330.44" x2="167.596" y2="337.029" gradientUnits="userSpaceOnUse">
<stop stop-color="#DD38DD"/>
<stop offset="1" stop-color="#0BA5EC"/>
</linearGradient>
<linearGradient id="paint28_linear_785_4376" x1="402.811" y1="194.876" x2="443.099" y2="204.824" gradientUnits="userSpaceOnUse">
<stop stop-color="#DD38DD"/>
<stop offset="1" stop-color="#0BA5EC"/>
</linearGradient>
<linearGradient id="paint29_linear_785_4376" x1="-53.5435" y1="-82.3884" x2="371.401" y2="74.7125" gradientUnits="userSpaceOnUse">
<stop stop-color="#DD38DD"/>
<stop offset="1" stop-color="#0BA5EC"/>
</linearGradient>
<linearGradient id="paint30_linear_785_4376" x1="-48.7005" y1="-40.7307" x2="-30.5371" y2="135.585" gradientUnits="userSpaceOnUse">
<stop stop-color="#DD38DD"/>
<stop offset="1" stop-color="#0BA5EC"/>
</linearGradient>
<linearGradient id="paint31_linear_785_4376" x1="163.379" y1="332.79" x2="165.437" y2="335.455" gradientUnits="userSpaceOnUse">
<stop stop-color="#DD38DD"/>
<stop offset="1" stop-color="#0BA5EC"/>
</linearGradient>
<linearGradient id="paint32_linear_785_4376" x1="401.925" y1="226.988" x2="418.613" y2="231.168" gradientUnits="userSpaceOnUse">
<stop stop-color="#DD38DD"/>
<stop offset="1" stop-color="#0BA5EC"/>
</linearGradient>
<linearGradient id="paint33_linear_785_4376" x1="453.948" y1="92.0861" x2="508.25" y2="113.209" gradientUnits="userSpaceOnUse">
<stop stop-color="#DD38DD"/>
<stop offset="1" stop-color="#0BA5EC"/>
</linearGradient>
<linearGradient id="paint34_linear_785_4376" x1="164.183" y1="333.707" x2="181.901" y2="351.764" gradientUnits="userSpaceOnUse">
<stop stop-color="#DD38DD"/>
<stop offset="1" stop-color="#0BA5EC"/>
</linearGradient>
<linearGradient id="paint35_linear_785_4376" x1="163.382" y1="332.531" x2="165.82" y2="334.379" gradientUnits="userSpaceOnUse">
<stop stop-color="#DD38DD"/>
<stop offset="1" stop-color="#0BA5EC"/>
</linearGradient>
<linearGradient id="paint36_linear_785_4376" x1="163.388" y1="332.237" x2="165.351" y2="333.124" gradientUnits="userSpaceOnUse">
<stop stop-color="#DD38DD"/>
<stop offset="1" stop-color="#0BA5EC"/>
</linearGradient>
<linearGradient id="paint37_linear_785_4376" x1="71.8795" y1="-183.318" x2="294.225" y2="-129.032" gradientUnits="userSpaceOnUse">
<stop stop-color="#DD38DD"/>
<stop offset="1" stop-color="#0BA5EC"/>
</linearGradient>
<linearGradient id="paint38_linear_785_4376" x1="163.051" y1="331.571" x2="163.445" y2="331.651" gradientUnits="userSpaceOnUse">
<stop stop-color="#DD38DD"/>
<stop offset="1" stop-color="#0BA5EC"/>
</linearGradient>
<linearGradient id="paint39_linear_785_4376" x1="163.391" y1="331.942" x2="164.288" y2="332.178" gradientUnits="userSpaceOnUse">
<stop stop-color="#DD38DD"/>
<stop offset="1" stop-color="#0BA5EC"/>
</linearGradient>
<linearGradient id="paint40_linear_785_4376" x1="164.498" y1="333.76" x2="184.337" y2="357.233" gradientUnits="userSpaceOnUse">
<stop stop-color="#DD38DD"/>
<stop offset="1" stop-color="#0BA5EC"/>
</linearGradient>
<linearGradient id="paint41_linear_785_4376" x1="164.491" y1="333.759" x2="183.915" y2="357.122" gradientUnits="userSpaceOnUse">
<stop stop-color="#DD38DD"/>
<stop offset="1" stop-color="#0BA5EC"/>
</linearGradient>
<linearGradient id="paint42_linear_785_4376" x1="-18.5964" y1="-8.62689" x2="323.198" y2="341.919" gradientUnits="userSpaceOnUse">
<stop stop-color="#DD38DD"/>
<stop offset="1" stop-color="#0BA5EC"/>
</linearGradient>
<linearGradient id="paint43_linear_785_4376" x1="-1.62571" y1="-295.667" x2="556.479" y2="-38.9695" gradientUnits="userSpaceOnUse">
<stop stop-color="#DD38DD"/>
<stop offset="1" stop-color="#0BA5EC"/>
</linearGradient>
<linearGradient id="paint44_linear_785_4376" x1="199.601" y1="346.824" x2="205.617" y2="354.037" gradientUnits="userSpaceOnUse">
<stop stop-color="#DD38DD"/>
<stop offset="1" stop-color="#0BA5EC"/>
</linearGradient>
<linearGradient id="paint45_linear_785_4376" x1="161.333" y1="330.743" x2="167.499" y2="336.031" gradientUnits="userSpaceOnUse">
<stop stop-color="#DD38DD"/>
<stop offset="1" stop-color="#0BA5EC"/>
</linearGradient>
<linearGradient id="paint46_linear_785_4376" x1="162.192" y1="331.149" x2="166.569" y2="335.328" gradientUnits="userSpaceOnUse">
<stop stop-color="#DD38DD"/>
<stop offset="1" stop-color="#0BA5EC"/>
</linearGradient>
</defs>
</svg>
