<svg width="53" height="61" viewBox="0 0 53 61" fill="none" xmlns="http://www.w3.org/2000/svg">
<path d="M0.5 0.894987L1.60984 0.249634H52.5V48.0629C52.5 48.0629 52.5 55.7109 48.288 58.8093C46.5664 60.0822 0.5 0.894987 0.5 0.894987Z" fill="#EDEDED"/>
<path d="M51.7676 0.959721V50.4919C51.7669 53.0801 50.9832 55.5621 49.5889 57.3919C48.1945 59.2217 46.3037 60.2497 44.3322 60.2497H0.5V0.959721H51.7676Z" fill="#EDEDED"/>
<path d="M51.7676 0.959721V50.4919C51.7669 53.0801 50.9832 55.562 49.5889 57.3919C48.1945 59.2217 46.3037 60.2497 44.3322 60.2497H0.5V0.959721H51.7676Z" fill="white"/>
<path d="M51.7675 50.3088C51.7668 52.9456 50.9666 55.4741 49.5431 57.3382C48.1195 59.2024 46.1891 60.2496 44.1762 60.2496H42.9788C45.6309 59.1302 45.2879 52.9679 45.2879 52.9679C50.2492 54.0873 51.7675 50.3088 51.7675 50.3088Z" fill="#EDEDED"/>
<path d="M9.39136 17.3194H44.0702V18.5301H9.39136V17.3194Z" fill="#A4A4A4"/>
<path d="M9.39136 26.4082H44.0702V27.6189H9.39136V26.4082Z" fill="#A4A4A4"/>
<path d="M9.39136 35.497H44.0702V36.7076H9.39136V35.497Z" fill="#A4A4A4"/>
</svg>
