<svg width="87" height="61" viewBox="0 0 87 61" fill="none" xmlns="http://www.w3.org/2000/svg">
<path d="M87 4.09054V56.4068C87 56.9116 86.9007 57.4115 86.7077 57.8778C86.5147 58.3442 86.2319 58.7679 85.8753 59.1248C85.5188 59.4816 85.0955 59.7646 84.6297 59.9577C84.1639 60.1507 83.6647 60.2499 83.1606 60.2496H3.849C3.34415 60.2509 2.84402 60.1524 2.37721 59.9599C1.91041 59.7674 1.48611 59.4845 1.1286 59.1276C0.771087 58.7707 0.487381 58.3466 0.293721 57.8797C0.100061 57.4129 0.000249729 56.9123 0 56.4068V4.09054C0.00101306 3.07151 0.405971 2.09457 1.1259 1.37437C1.84582 0.654175 2.82182 0.249634 3.83944 0.249634H83.1606C83.6645 0.249383 84.1636 0.34853 84.6293 0.541418C85.095 0.734305 85.5181 1.01716 85.8747 1.37382C86.2312 1.73048 86.5141 2.15397 86.7072 2.6201C86.9002 3.08624 86.9997 3.58589 87 4.09054Z" fill="white"/>
<path d="M10.6143 25.2892H68.5709V30.2477H10.6143V25.2892Z" stroke="#A4A4A4" stroke-width="0.156712" stroke-miterlimit="10"/>
<path d="M68.571 25.228H76.2346V30.3166H68.571V25.228Z" fill="#A4A4A4"/>
<path opacity="0.31" d="M68.571 25.228H76.2346V30.3166H68.571V25.228Z" fill="white"/>
<path d="M73.0041 28.4215C73.5116 27.9133 73.5116 27.0893 73.0041 26.5811C72.4966 26.0729 71.6738 26.0729 71.1662 26.5811C70.6587 27.0894 70.6587 27.9133 71.1662 28.4215C71.6738 28.9297 72.4966 28.9297 73.0041 28.4215Z" stroke="white" stroke-width="0.139512" stroke-miterlimit="10"/>
<path d="M72.9211 28.4628L73.1677 28.1336L74.5219 29.1515L74.2754 29.4807L72.9211 28.4628Z" fill="white"/>
<path d="M87 4.09054V5.35744H0V4.09054C0.00101306 3.07151 0.405971 2.09457 1.1259 1.37437C1.84582 0.654175 2.82182 0.249634 3.83944 0.249634H83.1606C83.6645 0.249383 84.1636 0.34853 84.6293 0.541418C85.095 0.734305 85.5181 1.01716 85.8747 1.37382C86.2312 1.73048 86.5141 2.15397 86.7072 2.6201C86.9002 3.08624 86.9997 3.58589 87 4.09054Z" fill="#A4A4A4"/>
<path d="M4.38023 3.07625C4.38023 3.23749 4.33248 3.39512 4.24302 3.52918C4.15356 3.66325 4.02641 3.76775 3.87765 3.82945C3.72889 3.89116 3.56519 3.9073 3.40726 3.87584C3.24933 3.84439 3.10427 3.76674 2.99041 3.65272C2.87655 3.53871 2.79901 3.39344 2.7676 3.2353C2.73618 3.07715 2.75231 2.91323 2.81393 2.76426C2.87555 2.61529 2.9799 2.48797 3.11378 2.39839C3.24767 2.3088 3.40507 2.26099 3.56609 2.26099C3.67308 2.26074 3.77906 2.28165 3.87795 2.32253C3.97684 2.36342 4.06669 2.42346 4.14234 2.49921C4.21799 2.57497 4.27795 2.66494 4.31877 2.76397C4.3596 2.86299 4.38048 2.96912 4.38023 3.07625Z" fill="white"/>
<path d="M6.72129 3.07625C6.72129 3.23749 6.67354 3.39512 6.58409 3.52918C6.49463 3.66325 6.36748 3.76775 6.21871 3.82945C6.06995 3.89116 5.90625 3.9073 5.74833 3.87584C5.5904 3.84439 5.44533 3.76674 5.33147 3.65272C5.21761 3.53871 5.14008 3.39344 5.10866 3.2353C5.07725 3.07715 5.09337 2.91323 5.15499 2.76426C5.21661 2.61529 5.32096 2.48797 5.45485 2.39839C5.58873 2.3088 5.74613 2.26099 5.90716 2.26099C6.01414 2.26074 6.12012 2.28165 6.21901 2.32253C6.3179 2.36342 6.40775 2.42346 6.4834 2.49921C6.55905 2.57497 6.61901 2.66494 6.65984 2.76397C6.70066 2.86299 6.72154 2.96912 6.72129 3.07625Z" fill="white"/>
<path d="M9.06065 3.07625C9.06065 3.23749 9.0129 3.39512 8.92344 3.52918C8.83398 3.66325 8.70683 3.76775 8.55807 3.82945C8.4093 3.89116 8.24561 3.9073 8.08768 3.87584C7.92975 3.84439 7.78469 3.76674 7.67083 3.65272C7.55697 3.53871 7.47943 3.39344 7.44802 3.2353C7.4166 3.07715 7.43273 2.91323 7.49435 2.76426C7.55597 2.61529 7.66032 2.48797 7.7942 2.39839C7.92809 2.3088 8.08549 2.26099 8.24651 2.26099C8.35349 2.26074 8.45947 2.28165 8.55836 2.32253C8.65725 2.36342 8.74711 2.42346 8.82276 2.49921C8.89841 2.57497 8.95836 2.66494 8.99919 2.76397C9.04001 2.86299 9.0609 2.96912 9.06065 3.07625Z" fill="white"/>
<path d="M34.1383 18.8475H33.5439V18.6561C33.5492 18.6008 33.5414 18.5451 33.521 18.4934C33.5124 18.4815 33.5008 18.472 33.4874 18.466C33.474 18.46 33.4592 18.4575 33.4446 18.459C33.4272 18.4583 33.4099 18.4621 33.3945 18.4702C33.3791 18.4783 33.366 18.4902 33.3567 18.5049C33.3349 18.5495 33.325 18.5989 33.328 18.6485C33.3239 18.7139 33.335 18.7794 33.3605 18.8398C33.4103 18.9057 33.4761 18.9577 33.5516 18.991C33.7552 19.0943 33.9374 19.2352 34.0886 19.4063C34.1751 19.5675 34.2135 19.7502 34.1995 19.9326C34.2071 20.0631 34.1862 20.1937 34.1383 20.3153C34.0853 20.4103 34.0018 20.4844 33.9013 20.5258C33.7723 20.584 33.6319 20.6128 33.4904 20.61C33.3387 20.6144 33.1883 20.5809 33.0528 20.5124C32.9453 20.4617 32.8603 20.3732 32.8139 20.2637C32.7719 20.1255 32.7531 19.9812 32.7585 19.8369V19.6761H33.3433V19.9747C33.3373 20.0351 33.3459 20.0962 33.3681 20.1527C33.3779 20.1666 33.3912 20.1776 33.4066 20.1847C33.4221 20.1918 33.4391 20.1946 33.456 20.1929C33.475 20.194 33.4938 20.1899 33.5107 20.1812C33.5275 20.1724 33.5416 20.1592 33.5516 20.1431C33.5749 20.097 33.5855 20.0454 33.5822 19.9938C33.594 19.8948 33.5732 19.7947 33.5229 19.7087C33.4309 19.6247 33.3311 19.5497 33.2248 19.4848C33.1147 19.4154 33.0093 19.3387 32.9095 19.2551C32.8523 19.2019 32.8079 19.1365 32.7795 19.0637C32.7066 18.8223 32.714 18.5638 32.8005 18.3269C32.8548 18.2359 32.9364 18.1642 33.0337 18.1222C33.1548 18.0719 33.2849 18.0472 33.4159 18.0494C33.5615 18.0454 33.7062 18.0728 33.8402 18.1298C33.9396 18.1674 34.0223 18.2394 34.0733 18.3327C34.1197 18.466 34.1391 18.6071 34.1307 18.748L34.1383 18.8475ZM36.0361 18.103H37.1025V18.5949H36.6763V19.0618H37.0757V19.5307H36.6763V20.0723H37.1445V20.566H36.0361V18.103ZM40.08 18.103L40.445 20.566H39.7914L39.757 20.122H39.5277L39.4895 20.566H38.8282L39.155 18.103H40.08ZM39.7398 19.6857C39.708 19.4063 39.6755 19.0618 39.6423 18.6523C39.5774 19.1231 39.5366 19.4675 39.52 19.6857H39.7398ZM42.1994 18.103H42.6524C42.8568 18.0967 43.0615 18.1082 43.2639 18.1375C43.3711 18.1602 43.4651 18.2241 43.5257 18.3155C43.6035 18.4554 43.6387 18.615 43.627 18.7748C43.6382 18.9064 43.6138 19.0386 43.5563 19.1575C43.5211 19.1955 43.4786 19.226 43.4313 19.247C43.384 19.2681 43.3329 19.2793 43.2811 19.28C43.3775 19.2944 43.4671 19.3385 43.5372 19.4063C43.5747 19.4483 43.6027 19.4979 43.6194 19.5517C43.6334 19.6724 43.6385 19.7939 43.6347 19.9154V20.566H43.0327V19.7469C43.0408 19.664 43.0303 19.5804 43.0021 19.502C42.9811 19.4714 42.9256 19.4541 42.8377 19.4541V20.566H42.1994V18.103ZM42.8377 18.5241V19.0714C42.8897 19.0758 42.9419 19.0658 42.9887 19.0427C43.0193 19.0216 43.0327 18.9585 43.0327 18.8513V18.7059C43.0363 18.6788 43.0345 18.6513 43.0272 18.625C43.02 18.5987 43.0076 18.5741 42.9906 18.5528C42.9445 18.5258 42.8905 18.5157 42.8377 18.5241ZM47.0135 19.1747H46.3733V18.7461C46.3781 18.6682 46.371 18.5902 46.3523 18.5145C46.3438 18.4985 46.3307 18.4856 46.3146 18.4773C46.2985 18.4691 46.2803 18.4661 46.2625 18.4686C46.2419 18.4655 46.2208 18.4692 46.2025 18.4793C46.1842 18.4893 46.1697 18.505 46.1612 18.5241C46.1431 18.6037 46.136 18.6855 46.1402 18.7671V19.9154C46.1361 19.9938 46.1432 20.0724 46.1612 20.1488C46.1692 20.167 46.1827 20.1822 46.1999 20.1922C46.2171 20.2022 46.237 20.2064 46.2567 20.2043C46.2763 20.2066 46.296 20.2024 46.3129 20.1924C46.3298 20.1824 46.343 20.1671 46.3504 20.1488C46.371 20.0644 46.3787 19.9773 46.3733 19.8905V19.5824H47.0135V19.6781C47.0217 19.8603 47.0031 20.0428 46.9581 20.2196C46.9139 20.338 46.8302 20.4374 46.7211 20.501C46.5839 20.5851 46.4251 20.627 46.2644 20.6215C46.1039 20.6276 45.9446 20.592 45.8019 20.5182C45.7452 20.4895 45.6948 20.4499 45.6534 20.4016C45.6121 20.3533 45.5807 20.2973 45.5611 20.2369C45.5144 20.0603 45.4945 19.8778 45.5018 19.6953V18.9757C45.4997 18.8422 45.5054 18.7086 45.519 18.5757C45.5338 18.4826 45.5712 18.3945 45.628 18.3193C45.6928 18.2342 45.7793 18.1681 45.8783 18.1279C45.9949 18.0784 46.1206 18.0543 46.2472 18.0571C46.4096 18.0509 46.5706 18.0886 46.7135 18.1662C46.8234 18.2253 46.9088 18.3216 46.9543 18.4379C47.0004 18.6035 47.0204 18.7753 47.0135 18.947V19.1747ZM50.3523 18.103V20.566H49.712V19.5307H49.5209V20.566H48.8807V18.103H49.5209V18.9834H49.712V18.103H50.3523Z" fill="#A4A4A4"/>
</svg>
