<svg width="135" height="61" viewBox="0 0 135 61" fill="none" xmlns="http://www.w3.org/2000/svg">
<path d="M42.3111 23.03H92.7019V37.4951H42.3111V23.03Z" fill="#4B4B4B"/>
<path d="M30.4468 0.288074H12.6249C6.07253 0.288074 0.760742 5.59987 0.760742 12.1523V48.3855C0.760742 54.9379 6.07253 60.2496 12.6249 60.2496H30.4468C36.9992 60.2496 42.311 54.9379 42.311 48.3855V12.1523C42.311 5.59987 36.9992 0.288074 30.4468 0.288074Z" fill="#A4A4A4"/>
<path d="M122.375 0.275261H104.553C98.0009 0.275261 92.6891 5.58705 92.6891 12.1395V48.3726C92.6891 54.9251 98.0009 60.2368 104.553 60.2368H122.375C128.928 60.2368 134.239 54.9251 134.239 48.3726V12.1395C134.239 5.58705 128.928 0.275261 122.375 0.275261Z" fill="#A4A4A4"/>
<path d="M21.5295 0.249634V60.1984H12.625C11.0665 60.2001 9.52293 59.8943 8.08274 59.2987C6.64255 58.7031 5.33396 57.8292 4.23193 56.7272C3.12991 55.6252 2.25608 54.3166 1.66044 52.8764C1.06481 51.4362 0.759063 49.8927 0.760749 48.3342V12.1523C0.759063 10.5938 1.06481 9.05021 1.66044 7.61002C2.25608 6.16983 3.12991 4.86128 4.23193 3.75925C5.33396 2.65723 6.64255 1.7834 8.08274 1.18776C9.52293 0.592127 11.0665 0.286383 12.625 0.288069L21.5295 0.249634Z" fill="white"/>
<path d="M113.471 0.249634V60.1984H104.566C103.008 60.2001 101.464 59.8943 100.024 59.2987C98.5837 58.7031 97.2751 57.8292 96.1731 56.7272C95.0711 55.6252 94.1972 54.3166 93.6016 52.8764C93.0059 51.4362 92.7002 49.8927 92.7019 48.3342V12.1523C92.7002 10.5938 93.0059 9.05021 93.6016 7.61002C94.1972 6.16983 95.0711 4.86128 96.1731 3.75925C97.2751 2.65723 98.5837 1.7834 100.024 1.18776C101.464 0.592127 103.008 0.286383 104.566 0.288069L113.471 0.249634Z" fill="white"/>
</svg>
