<svg width="87" height="61" viewBox="0 0 87 61" fill="none" xmlns="http://www.w3.org/2000/svg">
<path d="M5.56255 21.7271C13.1038 15.1413 21.3604 9.42276 30.1774 4.67889C37.0883 2.2411 44.2977 0.751149 51.6087 0.249634C51.6087 0.249634 52.8083 10.3309 46.9949 10.9999C41.1814 11.6689 36.3369 20.5044 36.3369 20.5044C36.3369 20.5044 73.6398 35.7762 78.7843 34.3459C83.9287 32.9157 82.9136 40.3439 73.4783 39.8595C64.043 39.375 61.7361 52.5707 55.2075 52.3861C48.6789 52.2015 38.3439 56.2386 28.7471 56.5846C19.0481 55.7766 9.51957 53.5538 0.464203 49.9869L5.56255 21.7271Z" fill="url(#paint0_linear_202_4665)"/>
<path d="M65.0353 5.1403L49.3482 10.031C49.3482 10.031 29.7394 11.7842 23.2108 17.367C16.6822 22.9497 20.3272 25.4643 20.3272 25.4643C20.3272 25.4643 41.0895 22.4191 45.5649 24.1493C50.0403 25.8795 71.933 34.5766 78.8538 34.4613C85.7746 34.3459 86.5358 32.5466 86.5358 32.5466L65.0353 5.1403Z" fill="url(#paint1_linear_202_4665)"/>
<path d="M17.7204 46.2267C18.8755 45.1979 20.2552 44.4535 21.7493 44.053C23.2433 43.6524 24.8104 43.6068 26.3252 43.9198C26.6653 43.9778 26.9793 44.1389 27.2249 44.3812C27.3743 44.6617 27.4525 44.9746 27.4525 45.2924C27.4525 45.6102 27.3743 45.9231 27.2249 46.2036C26.1841 49.7198 24.5283 53.0237 22.3342 55.9619C24.7796 55.1314 25.91 52.4093 27.4556 50.3561C28.622 48.8163 30.1183 47.557 31.8349 46.6708C33.5514 45.7846 35.4445 45.2939 37.3753 45.2348C37.8391 45.1898 38.3056 45.2863 38.7134 45.5116C39.6592 46.1575 39.244 47.6339 38.7134 48.672C37.7445 50.6099 36.7986 52.5708 35.8297 54.5316C38.266 50.9909 41.0988 47.7401 44.2731 44.8425C45.0242 44.0282 45.9802 43.4306 47.0413 43.1124C47.5726 42.9483 48.1454 42.9817 48.654 43.2063C49.1627 43.431 49.5731 43.8318 49.8097 44.335C50.0058 44.9503 50.0058 45.6114 49.8097 46.2267C49.1387 48.8931 47.9642 51.4066 46.3493 53.6319C48.2991 50.4161 50.7436 47.5277 53.593 45.0732C53.7956 44.8364 54.0524 44.6518 54.3416 44.5354C54.6307 44.4189 54.9437 44.3739 55.254 44.4042C55.6033 44.5204 55.8932 44.7689 56.0614 45.0963C57.0303 46.7112 56.0614 48.7644 55.0464 50.3792C53.1778 53.3551 50.8016 56.5387 47.3182 57.0693C46.5344 57.1065 45.7588 57.2461 45.0112 57.4845C44.4759 57.7581 43.973 58.0909 43.5118 58.4765C42.3128 59.3011 40.8993 59.7578 39.4445 59.7906C37.9897 59.8234 36.5571 59.4308 35.3222 58.6611C33.6398 59.7293 31.6813 60.2811 29.6887 60.2483C27.6961 60.2155 25.7568 59.5995 24.1105 58.4765C23.744 58.1276 23.2681 57.9163 22.7635 57.8785C22.2589 57.8406 21.7567 57.9785 21.3423 58.2688C19.841 58.7803 18.218 58.813 16.6973 58.3626C15.1766 57.9122 13.8333 57.0008 12.8527 55.7543C10.7765 52.7322 15.4365 48.1415 17.7204 46.2267Z" fill="url(#paint2_linear_202_4665)"/>
<defs>
<linearGradient id="paint0_linear_202_4665" x1="-4.10961" y1="47.1598" x2="50.1204" y2="25.8727" gradientUnits="userSpaceOnUse">
<stop stop-color="#ECC4D7"/>
<stop offset="0.42" stop-color="#EFD4D1"/>
<stop offset="1" stop-color="#F2EAC9"/>
</linearGradient>
<linearGradient id="paint1_linear_202_4665" x1="61.5632" y1="7.02025" x2="7.61727" y2="135.117" gradientUnits="userSpaceOnUse">
<stop stop-color="#ECC4D7"/>
<stop offset="0.42" stop-color="#EFD4D1"/>
<stop offset="1" stop-color="#F2EAC9"/>
</linearGradient>
<linearGradient id="paint2_linear_202_4665" x1="36.7107" y1="41.9388" x2="24.3182" y2="87.3925" gradientUnits="userSpaceOnUse">
<stop stop-color="#ECC4D7"/>
<stop offset="0.42" stop-color="#EFD4D1"/>
<stop offset="1" stop-color="#F2EAC9"/>
</linearGradient>
</defs>
</svg>
