<svg width="30" height="30" viewBox="0 0 30 30" fill="none" xmlns="http://www.w3.org/2000/svg">
<path d="M6.08872 24.9177C6.89982 23.0068 8.79355 21.6665 11.0003 21.6665H19.0003C21.2071 21.6665 23.1008 23.0068 23.9119 24.9177M20.3337 11.6665C20.3337 14.612 17.9458 16.9998 15.0003 16.9998C12.0548 16.9998 9.66699 14.612 9.66699 11.6665C9.66699 8.72099 12.0548 6.33317 15.0003 6.33317C17.9458 6.33317 20.3337 8.72099 20.3337 11.6665ZM28.3337 14.9998C28.3337 22.3636 22.3641 28.3332 15.0003 28.3332C7.63653 28.3332 1.66699 22.3636 1.66699 14.9998C1.66699 7.63604 7.63653 1.6665 15.0003 1.6665C22.3641 1.6665 28.3337 7.63604 28.3337 14.9998Z" stroke="white" stroke-width="2" stroke-linecap="round" stroke-linejoin="round"/>
</svg>
