<svg width="28" height="20" viewBox="0 0 28 20" fill="none" xmlns="http://www.w3.org/2000/svg">
<path d="M2.02515 10.8915C1.85492 10.6219 1.7698 10.4871 1.72215 10.2793C1.68637 10.1231 1.68637 9.87688 1.72215 9.72073C1.7698 9.51285 1.85492 9.37808 2.02515 9.10853C3.43191 6.88105 7.61925 1.25 14.0005 1.25C20.3818 1.25 24.5691 6.88105 25.9759 9.10853C26.1461 9.37808 26.2312 9.51285 26.2789 9.72073C26.3146 9.87688 26.3146 10.1231 26.2789 10.2793C26.2312 10.4871 26.1461 10.6219 25.9759 10.8915C24.5691 13.1189 20.3818 18.75 14.0005 18.75C7.61925 18.75 3.43191 13.1189 2.02515 10.8915Z" stroke="white" stroke-width="2" stroke-linecap="round" stroke-linejoin="round"/>
<path d="M14.0005 13.75C16.0716 13.75 17.7505 12.0711 17.7505 10C17.7505 7.92893 16.0716 6.25 14.0005 6.25C11.9294 6.25 10.2505 7.92893 10.2505 10C10.2505 12.0711 11.9294 13.75 14.0005 13.75Z" stroke="white" stroke-width="2" stroke-linecap="round" stroke-linejoin="round"/>
</svg>
